<svg width="120" height="120" viewBox="0 0 120 120" fill="none" xmlns="http://www.w3.org/2000/svg">
  <path d="M35 30 C35 30, 38 28, 42 30 L42 90 C42 92, 40 94, 38 94 C36 94, 34 92, 34 90 L34 35 C34 32, 35 30, 35 30 Z" fill="#AC9469"/>
  <path d="M42 30 C42 30, 45 28, 48 30 C48 30, 78 75, 78 75 L78 35 C78 32, 80 30, 82 30 C84 30, 86 32, 86 35 L86 90 C86 92, 84 94, 82 94 C80 94, 78 92, 78 90 C78 90, 48 45, 48 45 L48 90 C48 92, 46 94, 44 94 C42 94, 40 92, 40 90 L40 35 C40 32, 42 30, 42 30 Z" fill="#AC9469"/>
</svg>
