<svg width="200" height="80" viewBox="0 0 200 80" fill="none" xmlns="http://www.w3.org/2000/svg">
  <!-- Símbolo N -->
  <path d="M15 20 C15 20, 17 18, 19 20 L19 60 C19 61, 18 62, 17 62 C16 62, 15 61, 15 60 L15 22 C15 21, 15 20, 15 20 Z" fill="#AC9469"/>
  <path d="M19 20 C19 20, 21 18, 23 20 C23 20, 38 48, 38 48 L38 22 C38 21, 39 20, 40 20 C41 20, 42 21, 42 22 L42 60 C42 61, 41 62, 40 62 C39 62, 38 61, 38 60 C38 60, 23 32, 23 32 L23 60 C23 61, 22 62, 21 62 C20 62, 19 61, 19 60 L19 22 C19 21, 19 20, 19 20 Z" fill="#AC9469"/>
  
  <!-- Tipografia "neon" -->
  <text x="60" y="50" font-family="'Georgia', serif" font-size="32" font-weight="300" fill="#112031" letter-spacing="2">neon</text>
  
  <!-- Tagline "MENTORIA BLACK" -->
  <text x="60" y="68" font-family="'Arial', sans-serif" font-size="9" font-weight="400" fill="#20445B" letter-spacing="3">MENTORIA BLACK</text>
</svg>
